<svg width="1024" height="500" viewBox="0 0 1024 500" xmlns="http://www.w3.org/2000/svg">
  <defs>
    <linearGradient id="bg" x1="0" y1="0" x2="1024" y2="500" gradientUnits="userSpaceOnUse">
      <stop offset="0" stop-color="#210049" />
      <stop offset="0.5" stop-color="#4B0082" />
      <stop offset="1" stop-color="#D500F9" />
    </linearGradient>
    <filter id="shadow" x="-20%" y="-20%" width="140%" height="140%">
      <feDropShadow dx="0" dy="15" stdDeviation="20" flood-opacity="0.4"/>
    </filter>
  </defs>
  <rect width="1024" height="500" fill="url(#bg)" />
  
  <circle cx="150" cy="50" r="200" fill="#ffffff" opacity="0.03" />
  <circle cx="850" cy="450" r="300" fill="#ffffff" opacity="0.03" />
  
  <g transform="translate(352, 90) scale(13.33)" filter="url(#shadow)">
    <path fill="#FFD700" d="M18 4l2 4h-3l-2-4h-2l2 4h-3l-2-4H8l2 4H7L5 4H4c-1.1 0-1.99.9-1.99 2L2 18c0 1.1.9 2 2 2h16c1.1 0 2-.9 2-2V4h-4z" />
  </g>
</svg>
